<?xml version="1.0" encoding="UTF-8"?>
<svg version="1.1" xmlns="http://www.w3.org/2000/svg" width="714" height="300">
<path d="M0 0 C235.62 0 471.24 0 714 0 C714 99 714 198 714 300 C478.38 300 242.76 300 0 300 C0 201 0 102 0 0 Z " fill="#FEFEFE" transform="translate(0,0)"/>
<path d="M0 0 C21.71845353 -0.93343782 43.42017948 -1.68498695 65.1537466 -2.12429905 C75.25015431 -2.33390274 85.33291542 -2.61926773 95.4206543 -3.09301758 C169.162857 -6.49033965 169.162857 -6.49033965 189.79012012 11.95384693 C198.67256448 20.28095587 207.19229249 30.2392408 213 41 C213 41.66 213 42.32 213 43 C212.34 43 211.68 43 211 43 C211 43.66 211 44.32 211 45 C209.49736834 46.48342186 209.49736834 46.48342186 207.43976593 48.19274998 C203.42977173 51.60515604 199.67633802 55.18536122 195.96374512 58.91600037 C195.30354134 59.57534972 194.64333756 60.23469907 193.96312761 60.9140287 C191.77447378 63.10104907 189.58938869 65.29159894 187.40429688 67.48217773 C185.82699716 69.05975981 184.24947665 70.63712115 182.67175293 72.21427917 C178.40565826 76.48008778 174.1426467 80.74896535 169.88019371 85.01841235 C165.41903553 89.48583571 160.95503192 93.95041398 156.49133301 98.41529846 C149.00497824 105.9044049 141.5203698 113.39525307 134.03710938 120.88745117 C126.33255854 128.60119435 118.62694819 136.3138766 110.91992188 144.02514648 C110.20619562 144.73926683 110.20619562 144.73926683 109.47805065 145.46781384 C107.09078157 147.85638804 104.70349177 150.24494153 102.31619167 152.63348472 C82.54091407 172.41911303 62.76930095 192.20840011 43 212 C37.89831243 209.62136508 34.67923951 205.83514962 31.125 201.5625 C28.54095438 198.50017344 25.74154098 195.95787103 22.6640625 193.40234375 C19.46010122 190.70229187 16.62745953 187.80962521 14.0625 184.5 C12.01083105 181.85419686 12.01083105 181.85419686 9.0625 179.5625 C5.88461607 176.90345426 3.5594153 174.23690758 1 171 C2.5073727 167.47240552 4.55038592 165.19826706 7.2512207 162.49481201 C8.14298004 161.59741302 9.03473938 160.70001404 9.95352173 159.77542114 C10.94417461 158.78865663 11.93493128 157.80199629 12.92578125 156.81542969 C13.96756828 155.77093211 15.00892946 154.72600964 16.04989624 153.68069458 C18.87572775 150.84574673 21.70784743 148.01715997 24.54140854 145.18994045 C27.50366249 142.23274768 30.46103637 139.27068109 33.41918945 136.30938721 C38.3855666 131.33937191 43.35614538 126.37358799 48.32910156 121.41015625 C54.08484536 115.66530867 59.83333246 109.91327524 65.57812595 104.15747905 C70.50696621 99.21957591 75.43967695 94.28556463 80.37567043 89.35481191 C83.32549439 86.40811161 86.27393698 83.4600633 89.21890259 80.50850677 C91.9853807 77.73626993 94.75666979 74.96893588 97.53181839 72.20537949 C98.55186332 71.18798854 99.57019261 70.16887427 100.58671188 69.14796066 C101.96945928 67.7597859 103.35892769 66.37831535 104.7487793 64.99725342 C105.52601852 64.22076824 106.30325775 63.44428307 107.10404968 62.64426804 C109 61 109 61 111 61 C111 60.34 111 59.68 111 59 C74.37 59 37.74 59 0 59 C0 39.53 0 20.06 0 0 Z " fill="#000000" transform="translate(43,43)"/>
<path d="M0 0 C9.42575021 9.65017283 12.89168869 20.17780672 12.94628906 33.44873047 C12.77665233 43.51919191 9.09694448 51.86250727 2.25 59.25 C-3.13817064 64.25330131 -7.39018262 67.50126342 -14.3125 69.9375 C-15.32860352 70.32035156 -15.32860352 70.32035156 -16.36523438 70.7109375 C-31.48488109 76.21953362 -51.51085006 75.36716471 -66.46484375 69.46875 C-75.7832138 64.76382262 -84.92219287 57.85826881 -88.375 47.6875 C-88.72820313 46.6665625 -89.08140625 45.645625 -89.4453125 44.59375 C-90.75743385 39.87588345 -90.74304567 35.18053061 -90.75 30.3125 C-90.77449219 29.41789062 -90.79898438 28.52328125 -90.82421875 27.6015625 C-90.86610035 17.99671572 -87.17666101 9.65677546 -80.47265625 2.71875 C-59.69015469 -16.85843951 -22.56811028 -16.94073733 0 0 Z " fill="#040404" transform="translate(701.375,82.3125)"/>
<path d="M0 0 C1.00023193 0.00523682 2.00046387 0.01047363 3.03100586 0.01586914 C4.1105957 0.0190918 5.19018555 0.02231445 6.30249023 0.02563477 C8.00695312 0.03820313 8.00695312 0.03820313 9.74584961 0.05102539 C11.45611328 0.05779297 11.45611328 0.05779297 13.20092773 0.06469727 C16.02845312 0.07652792 18.85587601 0.09301129 21.68334961 0.11352539 C21.97467773 0.75676758 22.26600586 1.40000977 22.56616211 2.06274414 C29.39304294 17.19853886 29.39304294 17.19853886 36.68334961 32.11352539 C40.0435924 38.69429194 43.12758531 45.38647336 46.18334961 52.11352539 C49.50912222 59.42954651 52.89683424 66.68939067 56.53686523 73.85400391 C59.84233183 80.37621675 63.01479125 86.96140622 66.18334961 93.55102539 C66.72467529 94.67307373 67.26600098 95.79512207 67.82373047 96.95117188 C68.32396729 97.99345947 68.8242041 99.03574707 69.33959961 100.10961914 C69.79141602 101.04990967 70.24323242 101.9902002 70.70874023 102.95898438 C71.68334961 105.11352539 71.68334961 105.11352539 71.68334961 106.11352539 C63.76334961 106.11352539 55.84334961 106.11352539 47.68334961 106.11352539 C46.59022461 103.98915039 45.49709961 101.86477539 44.37084961 99.67602539 C44.0327124 99.02706299 43.6945752 98.37810059 43.34619141 97.70947266 C40.88463515 92.8530049 39.45432791 88.42646028 37.68334961 83.11352539 C19.20334961 83.44352539 0.72334961 83.77352539 -18.31665039 84.11352539 C-20.62665039 89.39352539 -22.93665039 94.67352539 -25.31665039 100.11352539 C-26.30665039 102.09352539 -27.29665039 104.07352539 -28.31665039 106.11352539 C-36.23665039 106.11352539 -44.15665039 106.11352539 -52.31665039 106.11352539 C-47.55106663 95.09698112 -42.59536381 84.20280672 -37.44165039 73.36352539 C-36.70515355 71.8098516 -35.9689126 70.25605649 -35.23291016 68.70214844 C-33.70369938 65.47406164 -32.17340123 62.24649378 -30.64233398 59.01928711 C-27.19822785 51.75735614 -23.76805692 44.48884484 -20.33734131 37.22058105 C-19.29253109 35.00732837 -18.24729612 32.79427685 -17.2019043 30.58129883 C-16.87212585 29.88303986 -16.54234741 29.18478088 -16.20257568 28.46536255 C-15.55376041 27.09177854 -14.90471754 25.71830202 -14.25543213 24.34494019 C-12.52128166 20.6746167 -10.79543995 17.00059762 -9.07885742 13.32202148 C-8.71160049 12.53663498 -8.34434357 11.75124847 -7.96595764 10.94206238 C-7.25714297 9.4255851 -6.55007275 7.90829092 -5.84495544 6.39009094 C-2.92223711 0.14320163 -2.92223711 0.14320163 0 0 Z " fill="#030303" transform="translate(376.316650390625,47.886474609375)"/>
<path d="M0 0 C5.61476858 3.36886115 5.61476858 3.36886115 8.09375 5.56640625 C8.64224609 6.04658203 9.19074219 6.52675781 9.75585938 7.02148438 C10.33142578 7.53001953 10.90699219 8.03855469 11.5 8.5625 C16.5698185 12.98056101 21.73376573 17.15984191 27.10351562 21.20922852 C31.74780107 24.74087907 36.17157765 28.4977962 40.54101562 32.36328125 C41.06373047 32.82089844 41.58644531 33.27851563 42.125 33.75 C42.68678955 34.27352051 43.2485791 34.79704102 43.82739258 35.33642578 C46.06202036 37.18081639 46.06202036 37.18081639 49.3034668 38.47216797 C53.55530116 40.56041472 56.73766507 42.73748372 59 47 C61.11901891 56.69997366 60.2839658 67.02652936 59.89263916 76.89105225 C59.75871457 80.62431507 59.69936843 84.35875056 59.63476562 88.09375 C59.50295921 95.40190863 59.24872986 102.69116865 59 110 C39.53 110 20.06 110 0 110 C0 73.7 0 37.4 0 0 Z " fill="#010101" transform="translate(195,147)"/>
<path d="M0 0 C7.26 0 14.52 0 22 0 C22 27.06 22 54.12 22 82 C14.74 82 7.48 82 0 82 C-0.33 74.41 -0.66 66.82 -1 59 C-2.65 62.3 -4.3 65.6 -6 69 C-11.52030174 76.26139877 -18.87035219 81.70254402 -27.87890625 83.609375 C-40.64698603 85.20738248 -51.5286608 84.12438969 -62.09765625 76.52734375 C-67.88649315 71.87963281 -71.52155907 65.25758346 -72.35095215 57.87692261 C-72.46097265 54.24354437 -72.44989633 50.63065523 -72.390625 46.99609375 C-72.38496521 45.67706558 -72.37930542 44.35803741 -72.37347412 42.9990387 C-72.35832844 39.52180688 -72.31914602 36.04526199 -72.2746582 32.56829834 C-72.23346341 29.00851733 -72.21541191 25.44862343 -72.1953125 21.88867188 C-72.15263775 14.92547361 -72.08238173 7.96284068 -72 1 C-65.07 1 -58.14 1 -51 1 C-50.9906543 2.56363281 -50.98130859 4.12726563 -50.97167969 5.73828125 C-50.93169324 11.56066984 -50.86590906 17.38253489 -50.79248047 23.20458984 C-50.76432123 25.72047175 -50.74308172 28.2364413 -50.72900391 30.75244141 C-50.70750544 34.37708236 -50.6608163 38.00067517 -50.609375 41.625 C-50.60814636 42.74302002 -50.60691772 43.86104004 -50.60565186 45.01293945 C-50.48009657 51.76547982 -49.67575884 56.27510164 -46 62 C-39.16345276 66.4152701 -31.94607669 66.6901297 -24 66 C-14.19968253 63.66719481 -7.79065474 59.00787572 -2.2946167 50.60916138 C-0.03484505 46.05483351 -0.14997902 41.62351479 -0.1953125 36.62109375 C-0.18160614 35.56841812 -0.16789978 34.51574249 -0.15377808 33.4311676 C-0.11666414 30.09950291 -0.12018067 26.76934104 -0.125 23.4375 C-0.10686033 21.16599252 -0.08605368 18.89450467 -0.0625 16.62304688 C-0.00584695 11.08116495 -0.00425252 5.54315466 0 0 Z " fill="#060606" transform="translate(523,72)"/>
<path d="M0 0 C6.93 0 13.86 0 21 0 C21 7.59 21 15.18 21 23 C27.93 23 34.86 23 42 23 C42 28.28 42 33.56 42 39 C35.07 39 28.14 39 21 39 C21 60.45 21 81.9 21 104 C13.74 104 6.48 104 -1 104 C-1 82.55 -1 61.1 -1 39 C-7.6 39 -14.2 39 -21 39 C-21 33.72 -21 28.44 -21 23 C-14.07 23 -7.14 23 0 23 C0 15.41 0 7.82 0 0 Z " fill="#050505" transform="translate(570,50)"/>
<path d="M0 0 C5.36410247 4.58020441 8.15115308 9.91731964 8.96875 16.9140625 C9.19561611 25.74293527 8.47044459 32.49891231 2.5 39.1875 C-4.81409162 45.76416263 -12.06782452 46.78559948 -21.625 46.875 C-22.48053467 46.88523193 -23.33606934 46.89546387 -24.2175293 46.90600586 C-32.27064848 46.79412438 -37.95572715 44.33483949 -44.4375 39.4375 C-49.59927563 33.98076577 -51.60778505 28.88834867 -51.8125 21.5 C-51.57799804 13.66372621 -49.64532989 7.8690854 -44.3125 2.04296875 C-32.45316332 -8.11158828 -12.89832594 -8.55847567 0 0 Z " fill="#FCFCFC" transform="translate(683.4375,92.5625)"/>
<path d="M0 0 C2.97 0 5.94 0 9 0 C9.33 8.58 9.66 17.16 10 26 C11.65 24.68 13.3 23.36 15 22 C19.88484872 19.55757564 27.26545545 20.26902674 32.42578125 21.6484375 C38.5584325 24.4349237 43.53667201 29.71349781 46 36 C46.85629489 43.31906791 47.15112296 50.25765354 42.55859375 56.3203125 C37.84734971 61.39759305 33.44100363 65.4440665 26.31640625 66.3359375 C20.1596001 66.42326808 16.69047582 66.08913277 12 62 C11.34 61.34 10.68 60.68 10 60 C9.505 62.475 9.505 62.475 9 65 C6.03 65 3.06 65 0 65 C0 43.55 0 22.1 0 0 Z " fill="#525252" transform="translate(324,186)"/>
<path d="M0 0 C1.78654698 1.20122352 3.26505063 2.61661313 4.78515625 4.13671875 C5.11515625 2.81671875 5.44515625 1.49671875 5.78515625 0.13671875 C8.75515625 0.13671875 11.72515625 0.13671875 14.78515625 0.13671875 C14.78515625 14.32671875 14.78515625 28.51671875 14.78515625 43.13671875 C11.81515625 43.13671875 8.84515625 43.13671875 5.78515625 43.13671875 C5.78515625 41.48671875 5.78515625 39.83671875 5.78515625 38.13671875 C5.31464844 38.48605469 4.84414063 38.83539063 4.359375 39.1953125 C3.73675781 39.65035156 3.11414063 40.10539062 2.47265625 40.57421875 C1.85777344 41.02667969 1.24289062 41.47914063 0.609375 41.9453125 C-3.40111441 44.56458289 -7.58938504 44.67583471 -12.21484375 44.13671875 C-19.91167365 42.24859017 -24.80500552 38.69362108 -29.21484375 32.13671875 C-32.07340182 26.66817288 -31.98311485 20.16408276 -31.21484375 14.13671875 C-28.79080277 7.80092064 -24.09916213 3.59361501 -18.4609375 0.02734375 C-13.1302302 -2.08639758 -5.33791666 -2.08056364 0 0 Z " fill="#515151" transform="translate(455.21484375,207.86328125)"/>
<path d="M0 0 C5.65670595 3.89684188 10.51653665 9.02569547 11.8125 15.9375 C11.8125 18.5775 11.8125 21.2175 11.8125 23.9375 C0.5925 23.9375 -10.6275 23.9375 -22.1875 23.9375 C-20.01562146 30.83933763 -20.01562146 30.83933763 -16 32.9375 C-11.30802887 34.16818095 -8.89049637 34.09397452 -4.1875 32.9375 C-3.56875 32.23625 -2.95 31.535 -2.3125 30.8125 C-0.1875 28.9375 -0.1875 28.9375 2.2734375 28.8984375 C4.8080626 29.16112974 7.30305987 29.49691127 9.8125 29.9375 C7.97073128 35.7976732 4.368376 39.24167923 -0.875 42.25 C-6.57159773 44.85782335 -11.9319276 45.00847433 -17.87109375 43.0546875 C-24.68421216 39.9973892 -28.18087335 36.25067613 -31.28515625 29.578125 C-33.17740841 24.04062516 -33.20984212 17.86411886 -31.27734375 12.33203125 C-27.69997678 5.46486701 -22.81235677 0.87471225 -15.3984375 -1.625 C-10.0877387 -2.67588033 -5.06796705 -1.68932235 0 0 Z " fill="#505050" transform="translate(407.1875,208.0625)"/>
<path d="M0 0 C12.54 0 25.08 0 38 0 C38 9 38 9 35.76953125 12.109375 C34.79371094 12.98078125 33.81789063 13.8521875 32.8125 14.75 C31.36810547 16.07257813 31.36810547 16.07257813 29.89453125 17.421875 C28.93933594 18.27265625 27.98414063 19.1234375 27 20 C25.32339818 21.65667193 23.65572011 23.32245821 22 25 C21.34515625 25.64324219 20.6903125 26.28648437 20.015625 26.94921875 C19.43296875 27.52285156 18.8503125 28.09648437 18.25 28.6875 C17.36054687 29.55955078 17.36054687 29.55955078 16.453125 30.44921875 C14.90358196 31.95513974 14.90358196 31.95513974 14 34 C21.92 34 29.84 34 38 34 C38 36.97 38 39.94 38 43 C25.46 43 12.92 43 0 43 C0 33 0 33 1.91796875 30.45703125 C2.93503906 29.64621094 3.95210937 28.83539063 5 28 C6.48904377 26.53865293 7.96285772 25.06171374 9.42578125 23.57421875 C13.95052083 19.04947917 18.47526042 14.52473958 23 10 C11.615 9.505 11.615 9.505 0 9 C0 6.03 0 3.06 0 0 Z " fill="#515151" transform="translate(526,208)"/>
<path d="M0 0 C0 0.66 0 1.32 0 2 C0.598125 2.185625 1.19625 2.37125 1.8125 2.5625 C4.96311492 4.63290409 5.91964933 7.51512841 7 11 C7.34057617 14.64038086 7.34057617 14.64038086 7.29296875 18.46484375 C7.28872391 19.14301651 7.28447906 19.82118927 7.28010559 20.51991272 C7.26347941 22.65953402 7.22586174 24.79816947 7.1875 26.9375 C7.17243222 28.39907482 7.1587475 29.86066458 7.14648438 31.32226562 C7.11362977 34.88182397 7.06196241 38.44081556 7 42 C4.03 42 1.06 42 -2 42 C-2.01458252 41.17274414 -2.02916504 40.34548828 -2.04418945 39.49316406 C-2.1186586 35.74497119 -2.2153246 31.99767003 -2.3125 28.25 C-2.33505859 26.94804687 -2.35761719 25.64609375 -2.38085938 24.3046875 C-2.41630859 23.05429688 -2.45175781 21.80390625 -2.48828125 20.515625 C-2.51446533 19.36352539 -2.54064941 18.21142578 -2.56762695 17.02441406 C-3.03650787 13.74463041 -3.88867391 12.47052891 -6 10 C-6 9.34 -6 8.68 -6 8 C-7.89294235 7.83697147 -9.78998395 7.72113471 -11.6875 7.625 C-12.74324219 7.55539063 -13.79898437 7.48578125 -14.88671875 7.4140625 C-18.28420585 8.05348918 -19.99098524 8.96312305 -22.05541992 11.77587891 C-24.25416024 16.95306275 -23.78752672 22.84203147 -23.8125 28.375 C-23.83763672 29.68339844 -23.86277344 30.99179688 -23.88867188 32.33984375 C-23.94743747 35.56019823 -23.9837975 38.77919642 -24 42 C-26.97 42 -29.94 42 -33 42 C-33 27.81 -33 13.62 -33 -1 C-30.03 -1 -27.06 -1 -24 -1 C-23.67 -0.01 -23.34 0.98 -23 2 C-22.071875 1.360625 -21.14375 0.72125 -20.1875 0.0625 C-13.66754863 -4.15629207 -6.88619289 -3.33202882 0 0 Z " fill="#505050" transform="translate(512,209)"/>
<path d="M0 0 C2.2568628 2.07260773 3.62725179 3.92499341 4.90112305 6.70532227 C5.24124924 7.43940811 5.58137543 8.17349396 5.93180847 8.92982483 C6.28817886 9.7173967 6.64454926 10.50496857 7.01171875 11.31640625 C7.57135063 12.53480446 7.57135063 12.53480446 8.14228821 13.77781677 C8.92788493 15.49193864 9.71021693 17.20756001 10.48950195 18.92456055 C11.68616778 21.55956651 12.89398663 24.18923694 14.10351562 26.81835938 C14.86524691 28.48407171 15.62633687 30.1500775 16.38671875 31.81640625 C16.74916183 32.60600235 17.11160492 33.39559845 17.48503113 34.2091217 C20 39.76837137 20 39.76837137 20 42 C7.13 42 -5.74 42 -19 42 C-9.08466526 19.1396449 -9.08466526 19.1396449 -4.4375 8.625 C-4.10363281 7.86525879 -3.76976562 7.10551758 -3.42578125 6.32275391 C-1.11693406 1.11693406 -1.11693406 1.11693406 0 0 Z " fill="#F6F6F6" transform="translate(385,71)"/>
<path d="M0 0 C5.13959507 1.81397473 7.63292134 4.08375972 10 9 C10.90065784 14.64682104 10.24247145 19.1921975 7 24 C4.70813824 26.63911354 3.1137483 27.83669918 -0.37109375 28.34765625 C-5.29269758 28.51585371 -9.21744618 28.44879907 -13 25 C-16.77109363 19.80200607 -17.81155954 16.39103136 -17 10 C-13.3640833 2.72816659 -8.22408457 -1.02801057 0 0 Z " fill="#FAFAFA" transform="translate(450,215)"/>
<path d="M0 0 C5.33739473 1.98844117 8.45333824 4.90667648 11 10 C11.2560735 14.52396512 11.21122596 17.99873398 9 22 C3.74519941 27.78028065 3.74519941 27.78028065 -0.171875 28.2734375 C-7.99311902 28.58154711 -7.99311902 28.58154711 -11.5 25.8125 C-14.89084799 21.99779601 -15.84476019 19.67658993 -16.3125 14.625 C-15.82743532 8.99824966 -14.51947494 5.34680734 -10.25 1.5625 C-6.41614322 -0.28070038 -4.2091441 -0.52614301 0 0 Z " fill="#FBFBFB" transform="translate(350,215)"/>
<path d="M0 0 C2.71393227 1.74467075 4.7428327 3.05246579 6.625 5.6875 C6.375 8.9375 6.375 8.9375 5.625 11.6875 C4.965 11.6875 4.305 11.6875 3.625 11.6875 C3.625 11.0275 3.625 10.3675 3.625 9.6875 C2.965 9.6875 2.305 9.6875 1.625 9.6875 C2.615 11.1725 2.615 11.1725 3.625 12.6875 C3.295 14.3375 2.965 15.9875 2.625 17.6875 C-5.625 17.6875 -13.875 17.6875 -22.375 17.6875 C-21.375 11.6875 -21.375 11.6875 -20 10.078125 C-19.46375 9.70171875 -18.9275 9.3253125 -18.375 8.9375 C-15.3563661 7.0229102 -15.3563661 7.0229102 -14.375 4.6875 C-15.365 4.3575 -16.355 4.0275 -17.375 3.6875 C-17.045 3.3575 -16.715 3.0275 -16.375 2.6875 C-17.035 2.3575 -17.695 2.0275 -18.375 1.6875 C-18.375 2.3475 -18.375 3.0075 -18.375 3.6875 C-20.025 3.3575 -21.675 3.0275 -23.375 2.6875 C-16.27245296 -3.3223475 -8.38835055 -3.26213632 0 0 Z " fill="#595959" transform="translate(407.375,208.3125)"/>
<path d="M0 0 C2.84992686 1.57429353 5.13792406 3.31170493 7 6 C7 7.32 7 8.64 7 10 C-0.92 10 -8.84 10 -17 10 C-16.05765768 5.2882884 -15.66902287 3.77751967 -11.9375 0.9609375 C-8.02897414 -0.97756525 -4.1995659 -0.94572901 0 0 Z " fill="#FAFAFA" transform="translate(402,215)"/>
<path d="M0 0 C0 0.66 0 1.32 0 2 C1.32 2.66 2.64 3.32 4 4 C4 4.66 4 5.32 4 6 C1 7 1 7 -1 7 C-1.33 7.66 -1.66 8.32 -2 9 C-2.66 9 -3.32 9 -4 9 C-4.33 9.66 -4.66 10.32 -5 11 C-5.33 10.01 -5.66 9.02 -6 8 C-9.3 7.67 -12.6 7.34 -16 7 C-14.68 6.34 -13.36 5.68 -12 5 C-13.65 4.67 -15.3 4.34 -17 4 C-16.814375 3.38125 -16.62875 2.7625 -16.4375 2.125 C-15.76313824 -0.04160178 -15.76313824 -0.04160178 -17 -2 C-11.39981251 -3.86672916 -5.25208305 -2.54133051 0 0 Z " fill="#595959" transform="translate(512,209)"/>
<path d="M0 0 C4.12486838 -0.08676908 8.24950384 -0.14031295 12.375 -0.1875 C13.550625 -0.21263672 14.72625 -0.23777344 15.9375 -0.26367188 C17.61972656 -0.27817383 17.61972656 -0.27817383 19.3359375 -0.29296875 C20.37282715 -0.3086792 21.4097168 -0.32438965 22.47802734 -0.34057617 C23.31027832 -0.22818604 24.1425293 -0.1157959 25 0 C25.66 0.99 26.32 1.98 27 3 C28.32 2.67 29.64 2.34 31 2 C31.46557346 5.18141867 31.50963377 7.25343123 29.6640625 9.95703125 C28.15741976 11.6935608 26.62063536 13.369718 25 15 C24.38125 14.649375 23.7625 14.29875 23.125 13.9375 C22.42375 13.628125 21.7225 13.31875 21 13 C20.01 13.495 20.01 13.495 19 14 C19 13.34 19 12.68 19 12 C18.01 12.33 17.02 12.66 16 13 C15.34 12.34 14.68 11.68 14 11 C16.97 8.03 19.94 5.06 23 2 C11.615 1.505 11.615 1.505 0 1 C0 0.67 0 0.34 0 0 Z " fill="#5D5D5D" transform="translate(526,216)"/>
<path d="M0 0 C0 3.52032428 -0.70351351 4.4385343 -3 7 C-3.66 7 -4.32 7 -5 7 C-4.505 8.485 -4.505 8.485 -4 10 C-4.99 10 -5.98 10 -7 10 C-7.33 10.99 -7.66 11.98 -8 13 C-8.66 13 -9.32 13 -10 13 C-10.33 13.66 -10.66 14.32 -11 15 C-11.66 15 -12.32 15 -13 15 C-12.505 16.485 -12.505 16.485 -12 18 C-12.99 18 -13.98 18 -15 18 C-15.33 18.99 -15.66 19.98 -16 21 C-16.66 21 -17.32 21 -18 21 C-18.33 21.66 -18.66 22.32 -19 23 C-19.66 23 -20.32 23 -21 23 C-20.67 23.99 -20.34 24.98 -20 26 C-20.99 26 -21.98 26 -23 26 C-23.33 26.99 -23.66 27.98 -24 29 C-24.66 29 -25.32 29 -26 29 C-26.33 29.66 -26.66 30.32 -27 31 C-27.66 31 -28.32 31 -29 31 C-28.67 31.99 -28.34 32.98 -28 34 C-28.99 34 -29.98 34 -31 34 C-31.33 34.99 -31.66 35.98 -32 37 C-32.66 37 -33.32 37 -34 37 C-34.33 37.66 -34.66 38.32 -35 39 C-35.66 39 -36.32 39 -37 39 C-36.67 39.99 -36.34 40.98 -36 42 C-36.99 42 -37.98 42 -39 42 C-39.33 42.99 -39.66 43.98 -40 45 C-40.66 45 -41.32 45 -42 45 C-42.66 45.66 -43.32 46.32 -44 47 C-44 44 -44 44 -42.32958984 41.96882629 C-41.54793457 41.19383286 -40.7662793 40.41883942 -39.9609375 39.62036133 C-38.63956787 38.29933159 -38.63956787 38.29933159 -37.29150391 36.95161438 C-36.31949434 35.9949257 -35.3473225 35.03840187 -34.375 34.08203125 C-33.38785727 33.10048321 -32.40137445 32.11827108 -31.41552734 31.13542175 C-28.81800608 28.54935928 -26.21160207 25.97243141 -23.60327148 23.39727783 C-20.94365225 20.76833716 -18.29249692 18.13089193 -15.640625 15.49414062 C-10.43534877 10.32104678 -5.22066312 5.15756993 0 0 Z " fill="#EDEDED" transform="translate(132,208)"/>
<path d="M0 0 C0.66 0.66 1.32 1.32 2 2 C1.34 2 0.68 2 0 2 C0 1.34 0 0.68 0 0 Z M1 -2 C4.89325923 -0.70224692 7.56532028 0.62890501 10 4 C9.75 7.25 9.75 7.25 9 10 C8.34 10 7.68 10 7 10 C7 9.34 7 8.68 7 8 C6.34 8 5.68 8 5 8 C5.99 9.485 5.99 9.485 7 11 C6.67 12.65 6.34 14.3 6 16 C-2.25 16 -10.5 16 -19 16 C-19 15.67 -19 15.34 -19 15 C-11.08 15 -3.16 15 5 15 C2.99750365 9.99375913 2.4092967 8.68391973 -2 6 C-4.70233303 5.39836742 -7.22223595 5.18832299 -10 5 C-10 4.67 -10 4.34 -10 4 C-5.38 3.67 -0.76 3.34 4 3 C4 2.34 4 1.68 4 1 C3.01 0.67 2.02 0.34 1 0 C1 -0.66 1 -1.32 1 -2 Z " fill="#6E6E6E" transform="translate(404,210)"/>
<path d="M0 0 C3.3 0.33 6.6 0.66 10 1 C8.60865582 5.42700422 6.52115858 7.99413292 3 11 C-0.75366417 11 -2.78715662 9.88579937 -6 8 C-6.33 7.01 -6.66 6.02 -7 5 C-6.21625 4.731875 -5.4325 4.46375 -4.625 4.1875 C-1.71885077 3.15185568 -1.71885077 3.15185568 0 0 Z " fill="#595959" transform="translate(407,237)"/>
<path d="M0 0 C0.99 0 1.98 0 3 0 C3.66 1.32 4.32 2.64 5 4 C5.66 4 6.32 4 7 4 C4.96030246 11.06049149 4.96030246 11.06049149 2 13 C-1.86146303 13.82745636 -4.22941703 14.25686099 -8 13 C-8 11 -8 11 -6 9 C-5.67 8.34 -5.34 7.68 -5 7 C-4.34 6.731875 -3.68 6.46375 -3 6.1875 C-0.71525923 5.14044802 -0.71525923 5.14044802 -0.25 2.375 C-0.1675 1.59125 -0.085 0.8075 0 0 Z " fill="#4E4E4E" transform="translate(362,232)"/>
<path d="M0 0 C0.66 0.33 1.32 0.66 2 1 C0.6618467 5.0144599 -1.76313892 6.35766442 -5 9 C-5.99 10.485 -5.99 10.485 -7 12 C-10 14.5 -10 14.5 -13 17 C-13.66 17.99 -14.32 18.98 -15 20 C-15.66 20 -16.32 20 -17 20 C-18.70680947 21.62553283 -20.37660195 23.29115995 -22 25 C-22.66 24.67 -23.32 24.34 -24 24 C-20.90984779 20.86050859 -17.81325304 17.72756243 -14.71044922 14.60058594 C-13.65525491 13.5353174 -12.60186036 12.46826303 -11.55029297 11.39941406 C-10.04080273 9.86573784 -8.52501301 8.33854432 -7.0078125 6.8125 C-6.09660645 5.89082031 -5.18540039 4.96914062 -4.24658203 4.01953125 C-2 2 -2 2 0 2 C0 1.34 0 0.68 0 0 Z " fill="#2C2C2C" transform="translate(154,102)"/>
<path d="M0 0 C0.99 0.66 1.98 1.32 3 2 C2.34 2.61875 1.68 3.2375 1 3.875 C-1.2284549 5.75637427 -1.2284549 5.75637427 -1 8 C-0.01 8.66 0.98 9.32 2 10 C1.01 10.495 1.01 10.495 0 11 C-1.48555383 10.07265428 -2.96327506 9.13275187 -4.4375 8.1875 C-5.26121094 7.66542969 -6.08492188 7.14335937 -6.93359375 6.60546875 C-9 5 -9 5 -10 2 C-8.02 1.67 -6.04 1.34 -4 1 C-4 1.66 -4 2.32 -4 3 C-2.68 2.01 -1.36 1.02 0 0 Z " fill="#5D5D5D" transform="translate(389,240)"/>
<path d="M0 0 C4.35535069 1.16142685 6.64619703 2.07699505 9 6 C8.34 6 7.68 6 7 6 C7.33 6.99 7.66 7.98 8 9 C6.4375 10.1875 6.4375 10.1875 4 11 C0.25 9.625 0.25 9.625 -3 8 C-3 7.67 -3 7.34 -3 7 C-1.02 6.67 0.96 6.34 3 6 C2.505 5.566875 2.01 5.13375 1.5 4.6875 C0 3 0 3 0 0 Z " fill="#585858" transform="translate(451,207)"/>
<path d="M0 0 C-3.08970553 3.35453743 -5.50002638 5.90244546 -10 7 C-13.3125 6.625 -13.3125 6.625 -16 6 C-15.401875 5.566875 -14.80375 5.13375 -14.1875 4.6875 C-12.01652235 3.13480798 -12.01652235 3.13480798 -10.625 1.375 C-7.38320849 -1.36805435 -3.85994813 -1.28664938 0 0 Z " fill="#595959" transform="translate(363,245)"/>
<path d="M0 0 C3.10011632 2.53645881 4.0575938 5.15184135 5 9 C4.625 11.375 4.625 11.375 4 13 C3.67 11.35 3.34 9.7 3 8 C1.02 8.33 -0.96 8.66 -3 9 C-3.66 7.02 -4.32 5.04 -5 3 C-4.34 3 -3.68 3 -3 3 C-3 3.66 -3 4.32 -3 5 C-2.34 5 -1.68 5 -1 5 C-1.33 3.68 -1.66 2.36 -2 1 C-1.34 0.67 -0.68 0.34 0 0 Z " fill="#575757" transform="translate(414,215)"/>
<path d="M0 0 C1.85776765 3.13498292 2.20140476 5.37471432 2 9 C1.01 9.33 0.02 9.66 -1 10 C-1.61875 9.360625 -2.2375 8.72125 -2.875 8.0625 C-4.82597612 5.96116416 -4.82597612 5.96116416 -7 5 C-6.67 4.01 -6.34 3.02 -6 2 C-5.34 2 -4.68 2 -4 2 C-2.65117592 1.36525925 -1.3153341 0.70151152 0 0 Z " fill="#4D4D4D" transform="translate(433,234)"/>
<path d="M0 0 C1.9375 1.0625 1.9375 1.0625 4 3 C4.75 6.6875 4.75 6.6875 5 10 C4.01 10 3.02 10 2 10 C-0.1875 7.5 -0.1875 7.5 -2 5 C-1.34 3.35 -0.68 1.7 0 0 Z " fill="#F6F6F6" transform="translate(251,72)"/>
<path d="M0 0 C0.99 0 1.98 0 3 0 C2.67 0.66 2.34 1.32 2 2 C1.34 1.34 0.68 0.68 0 0 Z M1 2 C1.33 2.66 1.66 3.32 2 4 C2.33 3.34 2.66 2.68 3 2 C4.32 2.33 5.64 2.66 7 3 C7.33 4.32 7.66 5.64 8 7 C7.20335937 6.75443359 7.20335937 6.75443359 6.390625 6.50390625 C3.46123236 5.88643623 0.74177064 5.90498075 -2.25 5.9375 C-3.32765625 5.94652344 -4.4053125 5.95554688 -5.515625 5.96484375 C-6.74539063 5.98224609 -6.74539063 5.98224609 -8 6 C-7.67 5.34 -7.34 4.68 -7 4 C-4.69 4 -2.38 4 0 4 C0.33 3.34 0.66 2.68 1 2 Z " fill="#4C4C4C" transform="translate(402,208)"/>
<path d="M0 0 C0 0.33 0 0.66 0 1 C-1.98 1.66 -3.96 2.32 -6 3 C-6.33 4.65 -6.66 6.3 -7 8 C-9.46800047 6.84826645 -11.04783565 5.95216435 -13 4 C-8.48649253 0.47726246 -5.71658336 -0.45732667 0 0 Z " fill="#EDEDED" transform="translate(350,215)"/>
<path d="M0 0 C0.66 0.66 1.32 1.32 2 2 C4.12860662 2.36952049 4.12860662 2.36952049 6.5703125 2.4140625 C7.46621094 2.45273438 8.36210938 2.49140625 9.28515625 2.53125 C10.22230469 2.5621875 11.15945313 2.593125 12.125 2.625 C13.54232422 2.68300781 13.54232422 2.68300781 14.98828125 2.7421875 C17.32532375 2.83661346 19.66235501 2.92218394 22 3 C22 3.33 22 3.66 22 4 C14.08 4 6.16 4 -2 4 C-1.34 2.68 -0.68 1.36 0 0 Z " fill="#E3E3E3" transform="translate(542,238)"/>
<path d="M0 0 C0.99 0.33 1.98 0.66 3 1 C1.70700306 3.88437779 0.34058637 5.87219421 -2 8 C-2.66 7.67 -3.32 7.34 -4 7 C-4 5.68 -4 4.36 -4 3 C-2.1875 1.1875 -2.1875 1.1875 0 0 Z " fill="#4C4C4C" transform="translate(547,228)"/>
<path d="M0 0 C0.66 0.33 1.32 0.66 2 1 C0.35 2.98 -1.3 4.96 -3 7 C-4.32 6.01 -5.64 5.02 -7 4 C-1.7265625 0.77734375 -1.7265625 0.77734375 0 0 Z " fill="#5D5D5D" transform="translate(439,207)"/>
<path d="M0 0 C0.66 0.66 1.32 1.32 2 2 C1.34 2.66 0.68 3.32 0 4 C-0.64767793 6.57061311 -0.64767793 6.57061311 -1 9 C-1.99 8.01 -2.98 7.02 -4 6 C-2.84826645 3.53199953 -1.95216435 1.95216435 0 0 Z " fill="#5B5B5B" transform="translate(431,212)"/>
<path d="M0 0 C0.66 0 1.32 0 2 0 C2 0.99 2 1.98 2 3 C3.32 3.66 4.64 4.32 6 5 C4.35 5.66 2.7 6.32 1 7 C0.67 4.69 0.34 2.38 0 0 Z " fill="#4C4C4C" transform="translate(333,239)"/>
<path d="M0 0 C1.32 0.99 2.64 1.98 4 3 C2.68 3.99 1.36 4.98 0 6 C-0.66 4.68 -1.32 3.36 -2 2 C-1.34 1.34 -0.68 0.68 0 0 Z " fill="#0D0D0D" transform="translate(123,211)"/>
<path d="M0 0 C-2.05233685 2.2477975 -3.00667261 3.0022242 -6 4 C-6 2.68 -6 1.36 -6 0 C-3.50907189 -1.24546405 -2.58919267 -0.7767578 0 0 Z " fill="#575757" transform="translate(444,214)"/>
<path d="M0 0 C0 4.38968456 -2.12805101 5.76905739 -5 9 C-5.66 8.34 -6.32 7.68 -7 7 C-4.69 4.69 -2.38 2.38 0 0 Z " fill="#131313" transform="translate(57,199)"/>
<path d="M0 0 C0 4.38968456 -2.12805101 5.76905739 -5 9 C-5.66 8.34 -6.32 7.68 -7 7 C-4.69 4.69 -2.38 2.38 0 0 Z " fill="#151515" transform="translate(65,191)"/>
</svg>
